# xmcd
#
# Track frame offsets:
#	150
#	4760
#	18655
#	36592
#	56134
#	76911
#	96259
#	115415
#	128835
#	148360
#	167080
#	183031
#	195301
#	216042
#	237011
#	259028
#	277580
#
# Disc length: 3778 seconds
#
# Revision: 2
# Processed by: cddbd v1.5.2PL0 Copyright (c) Steve Scherf et al.
# Submitted via: audiograbber 1.83.01
#
DISCID=e80ec011
DTITLE=Hui Buh - 003 Das mysteriöse Geisterbuch
DYEAR=2008
DGENRE=Kinder
TTITLE0=Titelmelodie
TTITLE1=Zwei flinke linke Hände
TTITLE2=Gespenstische Spulktur
TTITLE3=Merkwürdige Ritterrüstung
TTITLE4=Geheimnis auf Schloss Burgeck
TTITLE5=Ein mysteriöses Buch
TTITLE6=Das erste Experiment
TTITLE7=Ein teuflischer Spuk
TTITLE8=Reinhard Reinlich
TTITLE9=Gemeingefährlicher Putzlappen
TTITLE10=Bedrohlicher Nebel
TTITLE11=Schaurige Befürchtungen
TTITLE12=Verwirrte Schlossbewohner
TTITLE13=Legenden um das Geisterbuch
TTITLE14=Die helfenden Hände
TTITLE15=Peinliche Erinnerungen
TTITLE16=Eine stinkende Skulptur
EXTD=
EXTT0=
EXTT1=
EXTT2=
EXTT3=
EXTT4=
EXTT5=
EXTT6=
EXTT7=
EXTT8=
EXTT9=
EXTT10=
EXTT11=
EXTT12=
EXTT13=
EXTT14=
EXTT15=
EXTT16=
PLAYORDER=
